<?xml version="1.0" encoding="utf-8"?>
<!-- Generator: Adobe Illustrator 26.1.0, SVG Export Plug-In . SVG Version: 6.00 Build 0)  -->
<svg version="1.1" id="Layer_1" xmlns="http://www.w3.org/2000/svg" xmlns:xlink="http://www.w3.org/1999/xlink" x="0px" y="0px"
	 viewBox="0 0 600 600" style="enable-background:new 0 0 600 600;" xml:space="preserve">
<style type="text/css">
	.st0{fill:#FFE400;}
	.st1{fill:#393C4B;}
</style>
<rect y="0" class="st0" width="600" height="600"/>
<g>
	<path class="st1" d="M225.4,466.6c-89.4,0-162.2-74.7-162.2-166.6s72.8-166.6,162.2-166.6c33.6,0,65.9,10.5,93.3,30.3
		c1.9,1.4,3.1,3.4,3.4,5.7c0.3,2.3-0.3,4.6-1.8,6.4c-9.5,12-19.7,24.8-28.4,35.6c-1.6,2-4.2,3.3-6.8,3.3c-1.8,0-3.6-0.6-5-1.7
		c-16.1-12.9-35.1-19.7-54.8-19.7c-52.7,0-95.6,48.8-95.6,108.7c0,59.9,42.9,108.7,95.6,108.7c20.4,0,39.9-7.3,56.4-21
		c1.5-1.2,3.3-1.9,5.2-1.9c2.7,0,5.2,1.2,6.9,3.3c8.2,10.3,17.6,22.1,26.4,33.1c1.5,1.8,2.1,4.1,1.8,6.4c-0.3,2.3-1.5,4.3-3.4,5.7
		C291.3,456.1,259,466.6,225.4,466.6"/>
	<path class="st1" d="M526.6,364.2H414.4c-4.4,0-8.5,2.8-10.1,7l-16,43c-1.2,3.4-0.7,7,1.3,10c2,2.9,5.3,4.6,8.8,4.6h128.1
		c1.1,0,2.2-0.2,3.1-0.5c4.1-1.3,7.1-5.2,7.1-9.8v-44C536.8,368.9,532.2,364.2,526.6,364.2z"/>
</g>
</svg>
